<mxfile host="Electron" modified="2023-11-14T21:38:11.788Z" agent="Mozilla/5.0 (Windows NT 10.0; Win64; x64) AppleWebKit/537.36 (KHTML, like Gecko) draw.io/22.0.3 Chrome/114.0.5735.289 Electron/25.8.4 Safari/537.36" etag="eqNBPT5QsoXNkOfketxC" version="22.0.3" type="device">
  <diagram id="C5RBs43oDa-KdzZeNtuy" name="Page-1">
    <mxGraphModel dx="1863" dy="606" grid="1" gridSize="10" guides="1" tooltips="1" connect="1" arrows="1" fold="1" page="1" pageScale="1" pageWidth="827" pageHeight="1169" math="0" shadow="0">
      <root>
        <mxCell id="WIyWlLk6GJQsqaUBKTNV-0" />
        <mxCell id="WIyWlLk6GJQsqaUBKTNV-1" parent="WIyWlLk6GJQsqaUBKTNV-0" />
        <mxCell id="c5HB8ArA1VvQvfCRCA6W-2" style="edgeStyle=orthogonalEdgeStyle;rounded=0;orthogonalLoop=1;jettySize=auto;html=1;exitX=0.5;exitY=1;exitDx=0;exitDy=0;entryX=0.5;entryY=0;entryDx=0;entryDy=0;" edge="1" parent="WIyWlLk6GJQsqaUBKTNV-1" source="c5HB8ArA1VvQvfCRCA6W-0" target="c5HB8ArA1VvQvfCRCA6W-1">
          <mxGeometry relative="1" as="geometry" />
        </mxCell>
        <mxCell id="c5HB8ArA1VvQvfCRCA6W-0" value="start" style="ellipse;whiteSpace=wrap;html=1;" vertex="1" parent="WIyWlLk6GJQsqaUBKTNV-1">
          <mxGeometry x="354" y="30" width="120" height="80" as="geometry" />
        </mxCell>
        <mxCell id="c5HB8ArA1VvQvfCRCA6W-7" style="edgeStyle=orthogonalEdgeStyle;rounded=0;orthogonalLoop=1;jettySize=auto;html=1;exitX=0.5;exitY=1;exitDx=0;exitDy=0;entryX=0.5;entryY=0;entryDx=0;entryDy=0;" edge="1" parent="WIyWlLk6GJQsqaUBKTNV-1" source="c5HB8ArA1VvQvfCRCA6W-1" target="c5HB8ArA1VvQvfCRCA6W-6">
          <mxGeometry relative="1" as="geometry" />
        </mxCell>
        <mxCell id="c5HB8ArA1VvQvfCRCA6W-1" value="numbers[5]&lt;br&gt;i=0" style="rounded=0;whiteSpace=wrap;html=1;" vertex="1" parent="WIyWlLk6GJQsqaUBKTNV-1">
          <mxGeometry x="354" y="160" width="120" height="60" as="geometry" />
        </mxCell>
        <mxCell id="c5HB8ArA1VvQvfCRCA6W-9" style="edgeStyle=orthogonalEdgeStyle;rounded=0;orthogonalLoop=1;jettySize=auto;html=1;exitX=0.5;exitY=1;exitDx=0;exitDy=0;entryX=0.5;entryY=0;entryDx=0;entryDy=0;" edge="1" parent="WIyWlLk6GJQsqaUBKTNV-1" source="c5HB8ArA1VvQvfCRCA6W-6" target="c5HB8ArA1VvQvfCRCA6W-8">
          <mxGeometry relative="1" as="geometry" />
        </mxCell>
        <mxCell id="c5HB8ArA1VvQvfCRCA6W-11" style="edgeStyle=orthogonalEdgeStyle;rounded=0;orthogonalLoop=1;jettySize=auto;html=1;exitX=0;exitY=0.5;exitDx=0;exitDy=0;" edge="1" parent="WIyWlLk6GJQsqaUBKTNV-1" source="c5HB8ArA1VvQvfCRCA6W-6">
          <mxGeometry relative="1" as="geometry">
            <mxPoint x="270" y="300" as="targetPoint" />
          </mxGeometry>
        </mxCell>
        <mxCell id="c5HB8ArA1VvQvfCRCA6W-6" value="i&amp;lt;5?" style="rhombus;whiteSpace=wrap;html=1;" vertex="1" parent="WIyWlLk6GJQsqaUBKTNV-1">
          <mxGeometry x="374" y="260" width="80" height="80" as="geometry" />
        </mxCell>
        <mxCell id="c5HB8ArA1VvQvfCRCA6W-14" style="edgeStyle=orthogonalEdgeStyle;rounded=0;orthogonalLoop=1;jettySize=auto;html=1;exitX=0.5;exitY=1;exitDx=0;exitDy=0;" edge="1" parent="WIyWlLk6GJQsqaUBKTNV-1" source="c5HB8ArA1VvQvfCRCA6W-8">
          <mxGeometry relative="1" as="geometry">
            <mxPoint x="414" y="480" as="targetPoint" />
          </mxGeometry>
        </mxCell>
        <mxCell id="c5HB8ArA1VvQvfCRCA6W-8" value="numbers[i]" style="shape=parallelogram;perimeter=parallelogramPerimeter;whiteSpace=wrap;html=1;fixedSize=1;" vertex="1" parent="WIyWlLk6GJQsqaUBKTNV-1">
          <mxGeometry x="354" y="380" width="120" height="60" as="geometry" />
        </mxCell>
        <mxCell id="c5HB8ArA1VvQvfCRCA6W-10" value="true" style="text;html=1;align=center;verticalAlign=middle;resizable=0;points=[];autosize=1;strokeColor=none;fillColor=none;" vertex="1" parent="WIyWlLk6GJQsqaUBKTNV-1">
          <mxGeometry x="410" y="338" width="40" height="30" as="geometry" />
        </mxCell>
        <mxCell id="c5HB8ArA1VvQvfCRCA6W-16" style="edgeStyle=orthogonalEdgeStyle;rounded=0;orthogonalLoop=1;jettySize=auto;html=1;exitX=1;exitY=0.5;exitDx=0;exitDy=0;entryX=1;entryY=0.5;entryDx=0;entryDy=0;" edge="1" parent="WIyWlLk6GJQsqaUBKTNV-1" source="c5HB8ArA1VvQvfCRCA6W-15" target="c5HB8ArA1VvQvfCRCA6W-6">
          <mxGeometry relative="1" as="geometry">
            <mxPoint x="560" y="510" as="targetPoint" />
            <Array as="points">
              <mxPoint x="560" y="510" />
              <mxPoint x="560" y="300" />
            </Array>
          </mxGeometry>
        </mxCell>
        <mxCell id="c5HB8ArA1VvQvfCRCA6W-15" value="i++" style="rounded=0;whiteSpace=wrap;html=1;" vertex="1" parent="WIyWlLk6GJQsqaUBKTNV-1">
          <mxGeometry x="354" y="480" width="120" height="60" as="geometry" />
        </mxCell>
        <mxCell id="c5HB8ArA1VvQvfCRCA6W-19" style="edgeStyle=orthogonalEdgeStyle;rounded=0;orthogonalLoop=1;jettySize=auto;html=1;exitX=0;exitY=0.5;exitDx=0;exitDy=0;entryX=1;entryY=0.5;entryDx=0;entryDy=0;" edge="1" parent="WIyWlLk6GJQsqaUBKTNV-1" source="c5HB8ArA1VvQvfCRCA6W-17" target="c5HB8ArA1VvQvfCRCA6W-18">
          <mxGeometry relative="1" as="geometry" />
        </mxCell>
        <mxCell id="c5HB8ArA1VvQvfCRCA6W-17" value="cac gia tri cua phan tu trong mang" style="shape=parallelogram;perimeter=parallelogramPerimeter;whiteSpace=wrap;html=1;fixedSize=1;" vertex="1" parent="WIyWlLk6GJQsqaUBKTNV-1">
          <mxGeometry x="160" y="270" width="120" height="60" as="geometry" />
        </mxCell>
        <mxCell id="c5HB8ArA1VvQvfCRCA6W-18" value="end" style="ellipse;whiteSpace=wrap;html=1;" vertex="1" parent="WIyWlLk6GJQsqaUBKTNV-1">
          <mxGeometry x="-20" y="260" width="120" height="80" as="geometry" />
        </mxCell>
      </root>
    </mxGraphModel>
  </diagram>
</mxfile>
